<svg xmlns="http://www.w3.org/2000/svg" xml:space="preserve" width="2000" height="1500" data-id="lg_kxD4lUGzrqXlSUtNrM" data-version="1" viewBox="0 0 2000 1500"><path fill="#fdebed" stroke="transparent" d="M0 0h2000v1500H0z"/><g data-padding="20"><g transform="translate(-1578.125 -1192.23)scale(2.51374)"><path fill="#fb7f25" d="M927.611 742.361a71.4 71.4 0 0 1-6.458 28.43c21.06 3.51 21.247 20.686 21.247 28.502 0 7.254 0 29.25-29.227 29.25H883.9a58.5 58.5 0 0 0-46.8 23.423c-7.067-5.382-11.7-13.876-11.7-23.423v-29.25c0-5.78 1.03-10.343 2.62-14.087-.842-.164-1.707-.538-2.62-.538h-27.752q-1.428 6.786-1.475 14.625v29.25c0 32.3 26.178 58.486 58.477 58.5 0-16.146 13.104-29.25 29.25-29.25h29.273c29.227 0 58.477-16.45 58.477-58.5 0-35.779-20.358-52.346-44.039-56.932"/><path fill="#fb7f25" d="M854.627 682.293c10.904 0 29.25 3.79 29.25 29.25v29.25c0 9.57-4.633 18.065-11.7 23.4a58.5 58.5 0 0 0-46.8-23.4H796.15c-29.273 0-29.273-21.996-29.273-29.25 0-8.728 0-29.25 29.273-29.25Zm0-29.25H796.15c-29.273 0-58.523 15.538-58.523 58.5 0 42.05 29.25 58.5 58.523 58.5h29.227c16.146 0 29.25 13.104 29.25 29.25 32.292 0 58.523-26.208 58.523-58.5v-29.25c0-40.365-29.273-58.5-58.523-58.5"/><rect width="289.118" height="241.255" x="473.068" y="252.506" fill="none" rx="0" ry="0" transform="translate(535.95 399.51)"/><path fill="#570033" d="M1054.637 763.803q-2.68 0-5.12-.9-2.44-.89-4.62-2.35-2.17-1.46-4.2-3.28-2.02-1.81-3.87-3.72-.89 1.91-2.11 3.55-1.23 1.63-2.83 2.89-1.61 1.25-3.58 1.96-1.96.72-4.29.72-3.03 0-5.39-1.05-2.35-1.04-3.96-2.77-1.61-1.72-2.47-3.99-.87-2.26-.87-4.76 0-2.98 1.14-5.45 1.13-2.48 3.06-4.23 1.94-1.76 4.44-2.74 2.5-.99 5.24-.99 1.02 0 2 .15t1.94.45q-1.08-3.93-2.74-7.66-1.67-3.72-3.25-7.59t-2.74-8.16-1.16-9.41q0-3.94.95-7.81t2.71-7.41q1.76-3.55 4.32-6.59t5.78-5.27 7.06-3.48 8.19-1.25q4.11 0 7.44 1.25 3.34 1.25 5.75 3.42 2.42 2.18 3.73 5.18 1.31 3.01 1.31 6.59 0 3.57-1.08 6.85-1.07 3.27-2.91 6.13-1.85 2.86-4.29 5.19-2.45 2.32-5.19 3.99-2.74 1.66-5.6 2.56-2.85.89-5.48.89-1.25 0-2.35-.42-1.1-.41-1.96-1.25-.87-.83-1.38-2.14-.5-1.31-.5-3.1 0-1.61.95-1.61.3 0 .81.42.5.42 1.52.42 3.03 0 6.19-1.49t5.75-3.84q2.59-2.36 4.23-5.25t1.64-5.63q0-1.78-.54-3.36t-1.64-2.8-2.77-1.91q-1.67-.68-3.99-.68-4.23 0-7.68 1.87-3.46 1.88-5.96 5.01t-3.87 7.27-1.37 8.66q0 3.16.71 6.23.72 3.07 1.79 6.07 1.07 3.01 2.35 6.08t2.38 6.31q1.11 3.25 1.88 6.68.78 3.42.9 7.17 1.96 1.91 3.78 3.82 1.81 1.9 3.6 3.48t3.58 2.56q1.78.99 3.69.99 2.56 0 4.23-1.14 1.67-1.13 2.68-2.82 1.01-1.7 1.43-3.67.42-1.96.42-3.57 0-.84-.12-1.34-.12-.51-.12-.87 0-.89 1.49-.89 3.21 0 4.94 1.64t1.73 3.9q0 3.57-1.13 6.85t-3.19 5.84-4.97 4.08q-2.92 1.52-6.44 1.52m-30.26-18.71q-1.85 0-3.13 1.25t-1.28 3.28q0 1.73 1.1 3.13 1.11 1.4 3.19 1.4 1.25 0 2.24-.57.98-.56 1.69-1.52.72-.95 1.16-2.17.45-1.22.63-2.59-1.37-1.02-2.74-1.61-1.37-.6-2.86-.6m78.58-21.33q0 3.39-1.16 6.97-1.16 3.57-3.45 6.76-2.3 3.18-5.66 5.72-3.37 2.53-7.78 3.84.6 1.55 1.58 2.95.99 1.4 2.36 2.41t3.18 1.61q1.82.59 4.2.59 3.58 0 6.14-1.34t4.32-3.54q1.75-2.2 2.83-4.95 1.07-2.74 1.61-5.54.41-2.02 1.69-2.71 1.28-.68 2.62-.32 1.34.35 2.33 1.52.98 1.16.8 2.77-.24 1.84-.8 4.23-.57 2.38-1.7 4.82t-2.89 4.8q-1.76 2.35-4.32 4.2-2.56 1.84-6.02 2.97-3.45 1.14-7.92 1.14-4.17 0-8.07-1.64t-6.91-4.71-4.83-7.56q-1.81-4.5-1.81-10.22 0-5.78 1.61-10.75 1.6-4.98 4.23-8.61 2.62-3.63 5.95-5.69 3.34-2.05 6.85-2.05 2.56 0 4.62.89t3.49 2.53q1.42 1.64 2.17 3.9.74 2.27.74 5.01m-19.65 14.41q0 .54.06 1.07.05.54.05 1.14 2.27-1.08 4.12-2.74 1.84-1.67 3.15-3.82 1.31-2.14 2.03-4.67.71-2.53.71-5.27 0-2.03-.68-3.16-.69-1.13-1.88-1.13-1.49 0-2.65 1.01t-2.03 2.65q-.86 1.64-1.42 3.69-.57 2.06-.93 4.14-.36 2.09-.47 3.97-.12 1.87-.06 3.12"/><path fill="#570033" d="M1100.087 701.903q1.37.12 3.04.18 1.43.12 3.46.15 2.02.03 4.53.09v-20.67q0-1.31-.21-2.08-.21-.78-.42-1.23-.21-.44-.42-.71t-.21-.57q0-.35.36-.59t.95-.42q.6-.18 1.29-.27.68-.09 1.34-.09 3.03 0 4.79 1.58t1.76 3.78v21.39q5.6 0 11.82-.12 6.23-.12 12.48-.42.84-.89 1.34-.65.51.24.66 1.13t.03 2.2q-.12 1.32-.48 2.54t-.98 2.11q-.63.89-1.4.89-7.33.18-12.96.21t-10.51.03v38.66q0 2.98 1.13 4.29t3.04 1.31q1.85 0 3.19-1.31t2.32-3.27q.98-1.97 1.61-4.26.62-2.3 1.04-4.32.36-1.91 1.19-2.77t1.73-.86q.71 0 1.49.44.77.45 1.4 1.16.62.72 1.01 1.61.39.9.39 1.79v.3q0 .18-.12.53-.78 3.04-2.12 6.38-1.34 3.33-3.45 6.13-2.12 2.8-5.04 4.65-2.91 1.85-6.85 1.85-2.44 0-4.49-.75-2.06-.74-3.55-2.38t-2.32-4.2-.83-6.2v-38.78q-2.03 0-3.61-.03t-2.65-.09q-1.25-.06-2.2-.12-1.43 0-2.54-1.28-1.1-1.28-1.54-2.83-.45-1.54-.12-2.83.32-1.28 1.63-1.28"/><path fill="#570033" d="M1143.937 678.483v21.63q0 .89-1.25 1.52-1.25.62-2.74.8t-2.74-.15-1.31-1.34v-21.09q0-.53-.15-.83t-.3-.48-.3-.33q-.15-.14-.15-.44 0-.66.96-1.01.95-.36 2.62-.36.83 0 1.75.09.93.09 1.73.33.81.23 1.34.65.54.42.54 1.01m18.17 64.05q-.48 1.91-1.79 2.35-1.31.45-2.59-.09-1.28-.53-2.15-1.84-.86-1.31-.5-2.86.89-4.05 2.59-8.97 1.7-4.91 3.37-9.8-.9-1.37-1.43-2.77-.54-1.4-.54-2.94 0-1.55 1.16-3.25t2.8-3.13 3.4-2.35q1.75-.93 3-.93 2.21 0 3.31 1.49t1.1 4q0 1.37-.44 2.71-.45 1.34-.99 2.5-.53 1.16-.98 1.99-.45.84-.51 1.08 2.15 3.81 4.47 6.73t4.26 5.78q1.94 2.85 3.19 6.07t1.25 7.57q0 1.07-.15 2.2t-.45 2.15q2.15-.42 3.79-1.31 1.63-.9 2.86-2.06 1.22-1.16 2.02-2.53t1.34-2.86q.66-1.73 1.31-2.5.66-.78 1.49-.78.78 0 1.58.51t1.43 1.28q.62.77 1.01 1.61.39.83.39 1.49 0 .89-.48 2.14-.47 1.25-1.28 2.56-.8 1.31-1.82 2.54-1.01 1.22-2.08 2.11-2.86 2.32-6.73 3.9t-9.59 2q-2.21 1.9-5.22 3.12-3 1.23-6.76 1.23-1.9 0-3.9-.48-1.99-.48-3.81-1.22-1.82-.75-3.31-1.64t-2.38-1.79q-2.26-2.14-2.92-4.32-.65-2.17-.33-3.9.33-1.73 1.28-2.83.96-1.1 1.97-1.1.6 0 1.88.51 1.28.5 2.95 1.31 1.66.8 3.63 1.7 1.97.89 3.93 1.69 1.97.81 3.84 1.31 1.88.51 3.43.51 1.01-1.19 1.85-3.16.83-1.96.83-4.29 0-2.86-.78-5.3-.77-2.44-2.02-4.53-1.25-2.08-2.83-3.9-1.58-1.81-3.19-3.42-1.43 3.51-2.5 6.94-1.07 3.42-2.26 7.77m-125.52 69.38q2.27 0 4.77-.8 2.5-.81 4.97-2.21t4.71-3.33q2.23-1.94 3.93-4.23 1.7-2.3 2.71-4.83t1.01-5.09q0-1.07-.38-2.26-.39-1.2-1.25-2.21-.87-1.01-2.3-1.7-1.43-.68-3.51-.68-4.05 0-7.72 1.9-3.66 1.91-6.82 5.19-3.16 3.27-5.75 7.65t-4.4 9.33q-1.82 4.94-2.8 10.18-.99 5.24-.99 10.19 0 5.66 1.02 10.99 1.01 5.33 3.24 9.44 2.24 4.11 5.87 6.58 3.63 2.48 8.93 2.48 3.88 0 6.97-1.14 3.1-1.13 5.31-2.47 2.2-1.34 3.39-2.5t1.31-1.22q.78-1.31 1.76-1.55t1.91.24q.92.47 1.69 1.46.78.98 1.22 2.11.45 1.13.39 2.27-.06 1.13-.77 1.84l-.9.9q-.77.77-2.2 1.9t-3.51 2.41q-2.09 1.29-4.71 2.39t-5.81 1.81q-3.19.72-6.88.72-6.55 0-11.73-2.74-5.19-2.74-8.79-7.77-3.61-5.04-5.51-12.19-1.91-7.15-1.91-15.96 0-5.96 1.25-12.21 1.25-6.26 3.67-12.19 2.41-5.92 5.86-11.2 3.46-5.27 7.87-9.2t9.71-6.22q5.3-2.3 11.38-2.3 3.27 0 6.13 1.02 2.86 1.01 4.92 3.03 2.05 2.03 3.24 5.04t1.19 7q0 3.75-1.46 7.32-1.45 3.58-3.9 6.77-2.44 3.18-5.69 5.86-3.24 2.68-6.85 4.62-3.6 1.94-7.29 3.01-3.7 1.07-7.09 1.07-2.27 0-3.85-1.4-1.57-1.4-1.57-4.44 0-.65.09-1.34.08-.68.26-1.25t.45-.92q.27-.36.57-.36.29 0 .56.18t.72.42q.44.23 1.22.41.77.18 2.14.18m80.85 30.62q.12-.71.8-1.19.69-.48 1.58-.66.9-.17 1.88 0 .98.18 1.73.81.74.62 1.07 1.73.33 1.1-.09 2.83-.54 2.5-1.76 4.67-1.22 2.18-3.07 3.84-1.84 1.67-4.34 2.62-2.51.96-5.6.96-1.67 0-3.13-.18t-2.83-.66q-2.26 3.94-5.84 6.35-3.57 2.41-8.82 2.41-4.64 0-7.98-1.82-3.33-1.81-5.54-4.94-2.2-3.13-3.24-7.24-1.05-4.11-1.05-8.7 0-6.73 1.58-12.06t3.67-9.05q2.08-3.73 4.14-5.69 2.05-1.97 3.06-1.97 1.19 0 2.18 1.04.98 1.05 1.43 2.45.44 1.4.24 2.83-.21 1.43-1.4 2.2-.72 1.13-1.7 2.62-.99 1.49-1.85 3.72-.86 2.24-1.46 5.46-.59 3.21-.59 7.74 0 3.87.68 6.73.69 2.86 1.91 4.8 1.22 1.93 2.8 2.89 1.58.95 3.36.95 2.62 0 4.32-1.28t2.89-3.37q-4.29-3.69-6.52-9.38-2.24-5.69-2.24-12.3 0-2.86.63-5.45.62-2.59 1.85-4.56 1.22-1.96 3.06-3.13 1.85-1.16 4.29-1.16 2.15 0 4.05 1.55 1.91 1.55 3.34 4.29t2.23 6.49q.81 3.76.81 8.16 0 3.4-.42 6.74-.42 3.33-1.31 6.43.66.24 1.22.27.57.03 1.22.03 1.97 0 3.49-.72 1.52-.71 2.59-1.9 1.07-1.2 1.73-2.8.65-1.61.95-3.4m-23.29-11.32q0 4.11 1.28 7.81 1.28 3.69 3.36 6.43.36-2.92.36-5.6 0-3.1-.09-5.75t-.41-4.56q-.33-1.9-.9-3-.56-1.11-1.52-1.11-2.08 0-2.08 5.78"/><path fill="#570033" d="M1117.497 860.703v-38.66q0-1.73-.27-2.5-.27-.78-.27-1.43 0-.9.96-1.46.95-.57 2.26-.57 3.04 0 4.8 1.58 1.75 1.58 1.75 3.78v5.48q1.25-2.56 2.71-4.76 1.46-2.21 3.16-3.84 1.7-1.64 3.63-2.57 1.94-.92 4.2-.92 3.04 0 5.01 1.13 1.96 1.13 3.1 2.92 1.13 1.79 1.57 3.99.45 2.21.45 4.29v25.26q0 .42.06 1.34t.36 1.88q.3.95.92 1.66.63.72 1.82.72 1.84 0 3.18-1.31 1.35-1.31 2.33-3.28.98-1.96 1.61-4.26.62-2.29 1.04-4.32.36-1.9 1.19-2.77.83-.86 1.73-.86.71 0 1.49.45.77.44 1.4 1.16.62.71 1.01 1.61.39.89.39 1.78v.3q0 .18-.12.54-.78 3.04-2.12 6.37-1.34 3.34-3.45 6.14-2.12 2.8-5.04 4.64-2.91 1.85-6.85 1.85-2.44 0-4.32-.92-1.87-.93-3.21-2.47-1.34-1.55-2.03-3.64-.68-2.08-.68-4.41v-24.78q0-1.43-.06-2.68t-.33-2.2q-.27-.96-.77-1.52-.51-.57-1.4-.57-1.31 0-3.22 1.79t-3.75 4.65q-1.85 2.86-3.25 6.46t-1.76 7.24v17.81q0 .89-.03 1.82-.03.92-.35 1.66-.33.75-1.02 1.25-.68.51-1.99.51-.9 0-1.94-.21t-1.91-.77q-.86-.57-1.42-1.61-.57-1.04-.57-2.77"/><path fill="#570033" d="M1161.507 860.703v-38.66q0-1.73-.27-2.5-.26-.78-.26-1.43 0-.9.95-1.46.95-.57 2.26-.57 3.04 0 4.8 1.58 1.75 1.58 1.75 3.78v5.48q1.26-2.56 2.72-4.76 1.45-2.21 3.15-3.84 1.7-1.64 3.64-2.57 1.93-.92 4.2-.92 3.03 0 5 1.13t3.1 2.92 1.58 3.99q.44 2.21.44 4.29v25.26q0 .42.06 1.34t.36 1.88q.3.95.92 1.66.63.72 1.82.72 1.85 0 3.19-1.31t2.32-3.28q.98-1.96 1.61-4.26.62-2.29 1.04-4.32.36-1.9 1.19-2.77.84-.86 1.73-.86.72 0 1.49.45.77.44 1.4 1.16.63.71 1.01 1.61.39.89.39 1.78v.3q0 .18-.12.54-.77 3.04-2.11 6.37-1.34 3.34-3.46 6.14-2.11 2.8-5.03 4.64-2.92 1.85-6.85 1.85-2.45 0-4.32-.92-1.88-.93-3.22-2.47-1.34-1.55-2.02-3.64-.69-2.08-.69-4.41v-24.78q0-1.43-.06-2.68t-.33-2.2q-.27-.96-.77-1.52-.51-.57-1.4-.57-1.31 0-3.22 1.79-1.9 1.79-3.75 4.65t-3.25 6.46-1.76 7.24v17.81q0 .89-.02 1.82-.03.92-.36 1.66-.33.75-1.01 1.25-.69.51-2 .51-.89 0-1.94-.21-1.04-.21-1.9-.77-.87-.57-1.43-1.61-.57-1.04-.57-2.77"/><path fill="#570033" d="M1233.597 827.163q0 3.4-1.16 6.97-1.16 3.58-3.46 6.76-2.29 3.19-5.65 5.72-3.37 2.53-7.78 3.84.6 1.55 1.58 2.95t2.35 2.41q1.37 1.02 3.19 1.61 1.82.6 4.2.6 3.57 0 6.14-1.34 2.56-1.34 4.31-3.55 1.76-2.2 2.83-4.94 1.08-2.74 1.61-5.54.42-2.03 1.7-2.71 1.28-.69 2.62-.33t2.32 1.52q.99 1.16.81 2.77-.24 1.85-.81 4.23-.56 2.38-1.69 4.83-1.13 2.44-2.89 4.79t-4.32 4.2-6.02 2.98q-3.45 1.13-7.92 1.13-4.17 0-8.07-1.64t-6.91-4.7q-3.01-3.07-4.83-7.57-1.81-4.5-1.81-10.22 0-5.77 1.6-10.75 1.61-4.97 4.23-8.61 2.62-3.63 5.96-5.68 3.34-2.06 6.85-2.06 2.56 0 4.62.89 2.05.9 3.48 2.54 1.43 1.63 2.18 3.9.74 2.26.74 5m-19.66 14.42q0 .53.06 1.07t.06 1.13q2.27-1.07 4.11-2.74 1.85-1.67 3.16-3.81 1.31-2.15 2.03-4.68.71-2.53.71-5.27 0-2.02-.68-3.16-.69-1.13-1.88-1.13-1.49 0-2.65 1.01-1.16 1.02-2.03 2.66-.86 1.63-1.43 3.69-.56 2.05-.92 4.14-.36 2.08-.48 3.96t-.06 3.13"/><path fill="#570033" d="M1261.227 866.063q-4.05 0-7.86-1.49t-6.76-4.41-4.71-7.2q-1.76-4.29-1.76-9.95 0-5.25 1.49-10.31t4.11-9.02q2.63-3.96 6.29-6.41 3.66-2.44 8.01-2.44 3.16 0 5.36 1.28 2.21 1.28 3.58 3.1t1.99 3.9q.63 2.09.63 3.69 0 1.2-.63 2.15-.62.95-1.52 1.61-.89.65-1.96.98-1.08.33-1.91.27t-1.34-.6q-.51-.53-.33-1.61-.24-.77-.44-1.9-.21-1.13-.72-2.18-.51-1.04-1.4-1.78-.89-.75-2.44-.75-1.67 0-3.25 1.58t-2.8 4.32-1.96 6.37q-.75 3.64-.75 7.75 0 3.63.93 6.43.92 2.8 2.59 4.71 1.66 1.9 3.96 2.89 2.29.98 4.97.98 3.58 0 6.23-1.34t4.5-3.55q1.84-2.2 2.97-4.94 1.14-2.74 1.67-5.54.42-2.03 1.7-2.71 1.28-.69 2.62-.33t2.32 1.52q.99 1.16.81 2.77-.24 1.85-.87 4.23-.62 2.38-1.81 4.83-1.19 2.44-3.01 4.79t-4.44 4.2-6.11 2.98q-3.48 1.13-7.95 1.13"/><path fill="#570033" d="M1266.957 805.303q1.37.12 3.04.18 1.43.12 3.45.15 2.03.03 4.53.09v-20.67q0-1.32-.21-2.09t-.41-1.22q-.21-.45-.42-.72-.21-.26-.21-.56 0-.36.36-.6t.95-.41q.6-.18 1.28-.27.69-.09 1.34-.09 3.04 0 4.8 1.58 1.75 1.58 1.75 3.78v21.39q5.6 0 11.83-.12 6.22-.12 12.48-.42.83-.89 1.34-.66.51.24.66 1.14.14.89.03 2.2-.12 1.31-.48 2.53t-.98 2.12q-.63.89-1.4.89-7.33.18-12.96.21t-10.52.03v38.66q0 2.98 1.14 4.29 1.13 1.31 3.03 1.31 1.85 0 3.19-1.31t2.33-3.28q.98-1.96 1.6-4.26.63-2.29 1.05-4.32.35-1.9 1.19-2.77.83-.86 1.72-.86.72 0 1.49.45.78.44 1.4 1.16.63.71 1.02 1.61.38.89.38 1.78v.3q0 .18-.12.54-.77 3.04-2.11 6.37-1.34 3.34-3.45 6.14-2.12 2.8-5.04 4.64-2.92 1.85-6.85 1.85-2.44 0-4.5-.74-2.05-.75-3.54-2.39-1.49-1.63-2.32-4.2-.84-2.56-.84-6.19v-38.78q-2.02 0-3.6-.03t-2.65-.09q-1.25-.06-2.21-.12-1.43 0-2.53-1.28t-1.55-2.83q-.44-1.55-.12-2.83.33-1.28 1.64-1.28"/></g><path fill="transparent" stroke="transparent" stroke-width="2.604" d="M250 436.198h1500v627.604H250z"/></g></svg>